PathFileType	4	(X/Y/Z)	/Users/itak/Documents/Research/Walk-IL/dataset/trc/00338_00011.trc
DataRate	CameraRate	NumFrames	NumMarkers	Units	OrigDataRate	OrigDataStartFrame	OrigNumFrames
100.000000	100.000000	4	54	mm	100.000000	191	764
Frame#	Time	RPSI			LPSI			L3			STRN			T10			C7			CLAV			RBAK			LBAK			LSHO			LUPA			LAEL			LAOL			LWTS			LWPS			LFRA			LIFD			LHPS			LHTS			RSHO			RUPA			RAEL			RAOL			RWPS			RFRA			RIFD			RHTS			RHPS			RBHD			LFHD			RFHD			LBHD			LHIP			RHIP			RASI			LASI			LKNE			LTHI			LANK			LTIP			LTOE			LMT1			LMT5			LHEE			RKNE			RTHI			RANK			RTIP			RTOE			RMT5			RHEE			RWTS			RMT1			*53			
		X1	Y1	Z1	X2	Y2	Z2	X3	Y3	Z3	X4	Y4	Z4	X5	Y5	Z5	X6	Y6	Z6	X7	Y7	Z7	X8	Y8	Z8	X9	Y9	Z9	X10	Y10	Z10	X11	Y11	Z11	X12	Y12	Z12	X13	Y13	Z13	X14	Y14	Z14	X15	Y15	Z15	X16	Y16	Z16	X17	Y17	Z17	X18	Y18	Z18	X19	Y19	Z19	X20	Y20	Z20	X21	Y21	Z21	X22	Y22	Z22	X23	Y23	Z23	X24	Y24	Z24	X25	Y25	Z25	X26	Y26	Z26	X27	Y27	Z27	X28	Y28	Z28	X29	Y29	Z29	X30	Y30	Z30	X31	Y31	Z31	X32	Y32	Z32	X33	Y33	Z33	X34	Y34	Z34	X35	Y35	Z35	X36	Y36	Z36	X37	Y37	Z37	X38	Y38	Z38	X39	Y39	Z39	X40	Y40	Z40	X41	Y41	Z41	X42	Y42	Z42	X43	Y43	Z43	X44	Y44	Z44	X45	Y45	Z45	X46	Y46	Z46	X47	Y47	Z47	X48	Y48	Z48	X49	Y49	Z49	X50	Y50	Z50	X51	Y51	Z51	X52	Y52	Z52	X53	Y53	Z53	X54	Y54	Z54	

192	1.91	468.1799621582031	963.57177734375	1057.534057617188	409.5049133300781	964.3786010742188	941.0927124023438	438.0753479003906	1027.756713867188	998.2529296875	643.8805541992188	1202.259033203125	879.9906616210938	427.2763671875	1147.631958007812	988.7382202148438	460.4623413085938	1394.0107421875	942.947998046875	604.2057495117188	1328.762939453125	886.6271362304688	442.7828063964844	1260.993041992188	1034.300659179688	408.2101745605469	1352.202026367188	857.7686157226562	464.0474548339844	1362.156494140625	771.4608154296875	419.9902648925781	1242.551513671875	719.4658813476562	433.9435119628906	1040.235107421875	693.48681640625	396.883056640625	1022.780395507812	768.2107543945312	577.5870971679688	824.5548706054688	687.8524780273438	523.0942993164062	802.6285400390625	650.6875610351562	457.3281860351562	939.0052490234375	676.5797729492188	619.3027954101562	669.7229614257812	682.2879638671875	538.3607788085938	733.67138671875	653.6605834960938	599.592041015625	750.4580688476562	663.5092163085938	582.3443603515625	1384.458862304688	1066.798950195312	599.3883056640625	1323.44482421875	1132.875	625.7053833007812	1059.270874023438	1181.886108398438	555.9949951171875	1045.134033203125	1118.982788085938	715.6692504882812	820.372802734375	1183.557861328125	655.2001953125	993.4273071289062	1185.419311523438	746.0419311523438	662.4658203125	1113.609619140625	761.438232421875	734.60546875	1113.76513671875	732.3217163085938	735.8658447265625	1177.40283203125	557.3320922851562	1598.878662109375	985.6627197265625	623.3486328125	1593.860229492188	787.7988891601562	675.3981323242188	1602.377075195312	874.0214233398438	460.367431640625	1582.886108398438	878.97705078125	439.6455688476562	903.8701782226562	809.6209716796875	588.9227905273438	913.9020385742188	1119.97216796875	663.3186645507812	940.8504028320312	1031.837158203125	574.031494140625	927.08251953125	810.4774780273438	558.5485229492188	443.1801452636719	863.64208984375	528.8015747070312	580.18603515625	830.326171875	550.1734008789062	40.30628204345703	992.1671142578125	551.696044921875	226.3156585693359	918.2609252929688	748.7437744140625	47.10219573974609	913.9474487304688	720.415283203125	31.65563774108887	989.1729125976562	642.5841674804688	39.86957931518555	907.02734375	565.1543579101562	41.69622802734375	1066.266723632812	734.5936279296875	476.1052856445312	1069.769897460938	702.9246826171875	720.3616333007812	1085.807373046875	446.8905639648438	207.2074127197266	1230.372924804688	679.605224609375	374.5826416015625	1097.236694335938	517.8031005859375	48.2490119934082	1132.143676757812	489.5508117675781	112.0542373657227	1225.050659179688	404.0019836425781	250.4084777832031	1198.634521484375	723.8738403320312	834.1132202148438	1108.83056640625	469.0438232421875	93.44618225097656	1110.950317382812	nan	nan	nan	
193	1.92	476.6089782714844	964.168212890625	1054.87890625	415.3209838867188	964.805908203125	939.74755859375	444.7899169921875	1028.39013671875	996.0472412109375	648.7700805664062	1202.601806640625	873.7884521484375	433.7803039550781	1148.24169921875	985.9780883789062	466.4427795410156	1394.46533203125	939.422607421875	609.3953247070312	1329.187133789062	881.083740234375	450.02001953125	1261.550903320312	1031.099243164062	412.8932189941406	1352.845947265625	854.9429931640625	467.5587158203125	1362.690551757812	767.9878540039062	423.4151611328125	1243.029907226562	716.2027587890625	439.1375732421875	1040.9423828125	688.7652587890625	402.678466796875	1022.606262207031	763.5750732421875	587.8059692382812	829.4059448242188	680.7178955078125	533.7341918945312	806.118896484375	643.8599853515625	464.475830078125	940.571044921875	671.0692138671875	634.1687622070312	675.975341796875	673.74609375	551.0628662109375	737.63916015625	646.2322387695312	611.891357421875	756.226318359375	655.7124633789062	590.048828125	1384.994506835938	1061.463012695312	607.8947143554688	1324.128662109375	1127.4208984375	634.0968627929688	1060.044799804688	1176.860717773438	563.6806030273438	1045.90869140625	1114.697021484375	723.3638916015625	820.94873046875	1178.462036132812	663.3724975585938	994.138916015625	1180.307739257812	752.4996948242188	662.609619140625	1108.674438476562	768.1541748046875	734.7281494140625	1108.437377929688	739.6174926757812	736.2512817382812	1172.394653320312	564.5706787109375	1599.381591796875	980.22314453125	628.018798828125	1593.761108398438	781.47314453125	681.1619873046875	1602.316162109375	867.0452270507812	466.2039489746094	1583.41796875	874.8579711914062	442.1985473632812	903.9506225585938	807.7283325195312	599.2635498046875	914.9490356445312	1114.281494140625	671.0447998046875	941.7313842773438	1024.307983398438	576.5496215820312	926.9974365234375	805.2963256835938	558.6753540039062	442.8354187011719	861.7158813476562	529.693603515625	580.1240844726562	828.4757080078125	550.0029907226562	40.22536087036133	991.9544677734375	551.4970092773438	226.419189453125	917.55517578125	748.5611572265625	47.14979934692383	913.7024536132812	720.1478881835938	32.03085708618164	989.0340576171875	642.3944091796875	39.74507522583008	906.8491821289062	564.8678588867188	42.02206039428711	1066.105346679688	749.3134765625	478.7544860839844	1056.1552734375	714.343505859375	722.581787109375	1076.460815429688	473.6936340332031	201.9601593017578	1223.329467773438	697.4703979492188	376.1703796386719	1084.385986328125	551.642333984375	48.13173675537109	1121.998413085938	521.775390625	109.7898941040039	1215.856567382812	427.7374877929688	242.9460754394531	1192.9072265625	730.9104614257812	834.4396362304688	1103.5537109375	499.5688171386719	90.23509979248047	1102.16650390625	nan	nan	nan	
194	1.93	485.0609741210938	964.6964721679688	1052.160278320312	421.2022705078125	965.1658325195312	938.3872680664062	451.4795837402344	1028.98779296875	993.8369140625	653.5570678710938	1202.87841796875	867.473388671875	440.2710571289062	1148.775268554688	983.2076416015625	472.4881286621094	1394.83544921875	935.8660888671875	614.49658203125	1329.545654296875	875.4415283203125	457.3002319335938	1262.025024414062	1027.863037109375	417.4525756835938	1353.401123046875	852.1683959960938	470.9384460449219	1363.149780273438	764.5095825195312	426.6864929199219	1243.427001953125	712.9954223632812	444.112548828125	1041.559814453125	684.1597290039062	408.3688659667969	1022.389404296875	759.0906982421875	597.5985107421875	834.193359375	673.6610107421875	543.9359741210938	809.5596923828125	637.1907958984375	471.3529052734375	942.0846557617188	665.6910400390625	648.37158203125	682.2359619140625	665.4589233398438	563.2392578125	741.5972290039062	639.0350952148438	623.6419067382812	761.9403686523438	648.084716796875	597.7652587890625	1385.441040039062	1056.011352539062	616.4335327148438	1324.742065429688	1121.85107421875	642.5183715820312	1060.752075195312	1171.815551757812	571.3477172851562	1046.609375	1110.503540039062	731.0339965820312	821.4451904296875	1173.381958007812	671.5694580078125	994.7845458984375	1175.176513671875	758.8222045898438	662.6178588867188	1103.81494140625	774.7285766601562	734.7032470703125	1103.120361328125	746.87109375	736.5610961914062	1167.429321289062	571.7214965820312	1599.821533203125	974.7210693359375	632.599853515625	1593.586181640625	775.1229858398438	686.8283081054688	1602.181640625	860.0291748046875	471.9651489257812	1583.911865234375	870.6633911132812	444.8360900878906	903.933837890625	805.927490234375	609.6904296875	915.8736572265625	1108.318237304688	678.7076416015625	942.5442504882812	1016.747680664062	579.1083374023438	926.859619140625	800.126953125	558.876220703125	442.4819641113281	859.9156494140625	530.6295776367188	580.022705078125	826.7891235351562	549.8847045898438	40.17593002319336	991.798095703125	551.3997192382812	226.5056762695312	916.9517822265625	748.4093017578125	47.15218353271484	913.468994140625	719.930419921875	32.39884185791016	988.894775390625	642.2405395507812	39.6306037902832	906.6856689453125	564.6151123046875	42.35897064208984	1065.999389648438	763.178955078125	481.3374633789062	1042.289794921875	725.4710693359375	724.7166748046875	1066.930053710938	500.7153625488281	195.974365234375	1215.268676757812	714.7332153320312	377.5734252929688	1071.16259765625	585.8245239257812	47.99676132202148	1110.818603515625	554.2971801757812	107.3917465209961	1205.617797851562	451.7757263183594	234.5378112792969	1186.2763671875	737.8212890625	834.6273193359375	1098.2744140625	530.6099243164062	86.72434234619141	1092.384521484375	nan	nan	nan	
195	1.94	493.5492248535156	965.1522216796875	1049.3662109375	427.1645202636719	965.468994140625	937.00732421875	458.1504821777344	1029.55859375	991.615966796875	658.243408203125	1203.082885742188	861.067138671875	446.7827453613281	1149.235717773438	980.398193359375	478.6122131347656	1395.135009765625	932.2568969726562	619.5147705078125	1329.826416015625	869.7044677734375	464.6182556152344	1262.424072265625	1024.57666015625	421.925048828125	1353.860961914062	849.4262084960938	474.2127380371094	1363.523803710938	761.0216064453125	429.8250122070312	1243.73193359375	709.8424072265625	448.8864135742188	1042.0771484375	679.6654052734375	413.9402160644531	1022.116638183594	754.7432861328125	606.960205078125	838.8704833984375	666.7078857421875	553.6820678710938	812.9095458984375	630.6885375976562	477.9584655761719	943.510498046875	660.4424438476562	661.8973999023438	688.4432373046875	657.4049682617188	574.8832397460938	745.4920043945312	632.06591796875	634.821533203125	767.531982421875	640.6329956054688	605.4964599609375	1385.80029296875	1050.4423828125	625.006591796875	1325.279907226562	1116.162475585938	650.9640502929688	1061.384643554688	1166.743774414062	578.9840087890625	1047.228637695312	1106.385620117188	738.6717529296875	821.8512573242188	1168.299194335938	679.7867431640625	995.3525390625	1170.0146484375	765.0332641601562	662.505859375	1099.036254882812	781.1690673828125	734.5274658203125	1097.822509765625	754.08935546875	736.7999877929688	1162.502807617188	578.7805786132812	1600.197875976562	969.1539916992188	637.094482421875	1593.344116210938	768.7460327148438	692.3978271484375	1601.980224609375	852.97119140625	477.6538696289062	1584.3623046875	866.3905029296875	447.5769348144531	903.832763671875	804.2127075195312	620.08642578125	916.6717529296875	1102.16259765625	686.3132934570312	943.2913208007812	1009.151184082031	581.7282104492188	926.683837890625	794.9683227539062	559.1845092773438	442.1383972167969	858.2237548828125	531.6217651367188	579.9050903320312	825.2581787109375	549.8172607421875	40.15824508666992	991.6975708007812	551.4154663085938	226.5818481445312	916.4354858398438	748.2874755859375	47.11966323852539	913.2488403320312	719.7734985351562	32.75448989868164	988.7488403320312	642.1219482421875	39.52986907958984	906.5382080078125	564.4097290039062	42.68772888183594	1065.94873046875	776.1925048828125	483.8320617675781	1028.254272460938	736.3162841796875	726.7479248046875	1057.225219726562	527.9044189453125	189.3149719238281	1206.073852539062	731.40087890625	378.7774353027344	1057.617797851562	620.04736328125	47.88832855224609	1098.487426757812	586.9160766601562	104.8771514892578	1194.231811523438	476.1021728515625	225.2757415771484	1178.64501953125	744.6055908203125	834.6707763671875	1092.994506835938	561.9247436523438	83.01126098632812	1081.481567382812	nan	nan	nan	
